<svg xmlns="http://www.w3.org/2000/svg" width="900" height="620" viewBox="0 0 900 620" role="img" aria-label="Moreh border trip">
<defs>
<linearGradient id="g" x1="0" x2="1" y1="0" y2="1"><stop offset="0" stop-color="#1e3a5f"/><stop offset=".62" stop-color="#22c55e"/><stop offset="1" stop-color="#fbbf24"/></linearGradient>
<filter id="shadow"><feDropShadow dx="0" dy="18" stdDeviation="18" flood-color="#001b33" flood-opacity=".25"/></filter>
</defs>
<rect width="900" height="620" fill="url(#g)"/><circle cx="93" cy="183" r="3" fill="rgba(255,255,255,.45)" /><circle cx="463" cy="115" r="1" fill="rgba(255,255,255,.45)" /><circle cx="409" cy="199" r="1" fill="rgba(255,255,255,.45)" /><circle cx="469" cy="198" r="2" fill="rgba(255,255,255,.45)" /><circle cx="151" cy="83" r="1" fill="rgba(255,255,255,.45)" /><circle cx="552" cy="160" r="2" fill="rgba(255,255,255,.45)" /><circle cx="242" cy="58" r="1" fill="rgba(255,255,255,.45)" /><circle cx="524" cy="185" r="1" fill="rgba(255,255,255,.45)" /><circle cx="69" cy="152" r="1" fill="rgba(255,255,255,.45)" /><circle cx="446" cy="18" r="1" fill="rgba(255,255,255,.45)" /><circle cx="385" cy="26" r="3" fill="rgba(255,255,255,.45)" /><circle cx="354" cy="46" r="1" fill="rgba(255,255,255,.45)" /><circle cx="286" cy="226" r="1" fill="rgba(255,255,255,.45)" /><circle cx="205" cy="209" r="3" fill="rgba(255,255,255,.45)" /><circle cx="144" cy="186" r="1" fill="rgba(255,255,255,.45)" /><circle cx="121" cy="222" r="1" fill="rgba(255,255,255,.45)" /><circle cx="131" cy="223" r="2" fill="rgba(255,255,255,.45)" /><circle cx="203" cy="50" r="1" fill="rgba(255,255,255,.45)" />
<path d="M0 410 C145 315 250 455 400 365 C575 260 675 385 900 280 L900 620 L0 620 Z" fill="rgba(255,255,255,.22)"/>
<path d="M0 470 C175 395 320 510 510 420 C670 340 760 430 900 365 L900 620 L0 620 Z" fill="rgba(255,255,255,.35)"/>
<g filter="url(#shadow)"><rect x="70" y="80" width="760" height="385" rx="34" fill="rgba(255,255,255,.18)" stroke="rgba(255,255,255,.48)"/>
<rect x="112" y="275" width="330" height="130" rx="22" fill="rgba(255,255,255,.86)"/>
<rect x="490" y="145" width="230" height="210" rx="28" fill="rgba(0,35,67,.56)"/>
<text x="605" y="275" text-anchor="middle" font-size="88" font-family="Arial, sans-serif">🛣</text>
<path d="M125 330 L235 230 L320 315 L380 260 L425 330" fill="none" stroke="#1e3a5f" stroke-width="13" stroke-linecap="round" stroke-linejoin="round" opacity=".82"/>
</g>
<text x="90" y="520" font-family="Georgia, serif" font-size="54" font-weight="800" fill="white">Moreh</text>
<text x="92" y="565" font-family="Inter, Arial, sans-serif" font-size="27" font-weight="700" fill="rgba(255,255,255,.92)">border trip · What's On Imphal &amp; Manipur</text>
</svg>