<svg xmlns="http://www.w3.org/2000/svg" width="900" height="620" viewBox="0 0 900 620" role="img" aria-label="Moreh border trip">
<defs>
<linearGradient id="g" x1="0" x2="1" y1="0" y2="1"><stop offset="0" stop-color="#1e3a5f"/><stop offset=".62" stop-color="#22c55e"/><stop offset="1" stop-color="#fbbf24"/></linearGradient>
<filter id="shadow"><feDropShadow dx="0" dy="18" stdDeviation="18" flood-color="#001b33" flood-opacity=".25"/></filter>
</defs>
<rect width="900" height="620" fill="url(#g)"/><circle cx="106" cy="56" r="2" fill="rgba(255,255,255,.45)" /><circle cx="556" cy="189" r="1" fill="rgba(255,255,255,.45)" /><circle cx="159" cy="93" r="3" fill="rgba(255,255,255,.45)" /><circle cx="537" cy="16" r="3" fill="rgba(255,255,255,.45)" /><circle cx="248" cy="35" r="2" fill="rgba(255,255,255,.45)" /><circle cx="25" cy="146" r="1" fill="rgba(255,255,255,.45)" /><circle cx="236" cy="144" r="2" fill="rgba(255,255,255,.45)" /><circle cx="36" cy="116" r="1" fill="rgba(255,255,255,.45)" /><circle cx="147" cy="153" r="2" fill="rgba(255,255,255,.45)" /><circle cx="325" cy="81" r="1" fill="rgba(255,255,255,.45)" /><circle cx="378" cy="146" r="2" fill="rgba(255,255,255,.45)" /><circle cx="626" cy="112" r="3" fill="rgba(255,255,255,.45)" /><circle cx="48" cy="195" r="1" fill="rgba(255,255,255,.45)" /><circle cx="463" cy="192" r="2" fill="rgba(255,255,255,.45)" /><circle cx="508" cy="46" r="1" fill="rgba(255,255,255,.45)" /><circle cx="418" cy="155" r="1" fill="rgba(255,255,255,.45)" /><circle cx="572" cy="175" r="1" fill="rgba(255,255,255,.45)" /><circle cx="194" cy="214" r="2" fill="rgba(255,255,255,.45)" />
<path d="M0 410 C145 315 250 455 400 365 C575 260 675 385 900 280 L900 620 L0 620 Z" fill="rgba(255,255,255,.22)"/>
<path d="M0 470 C175 395 320 510 510 420 C670 340 760 430 900 365 L900 620 L0 620 Z" fill="rgba(255,255,255,.35)"/>
<g filter="url(#shadow)"><rect x="70" y="80" width="760" height="385" rx="34" fill="rgba(255,255,255,.18)" stroke="rgba(255,255,255,.48)"/>
<rect x="112" y="275" width="330" height="130" rx="22" fill="rgba(255,255,255,.86)"/>
<rect x="490" y="145" width="230" height="210" rx="28" fill="rgba(0,35,67,.56)"/>
<text x="605" y="275" text-anchor="middle" font-size="88" font-family="Arial, sans-serif">🛣</text>
<path d="M125 330 L235 230 L320 315 L380 260 L425 330" fill="none" stroke="#1e3a5f" stroke-width="13" stroke-linecap="round" stroke-linejoin="round" opacity=".82"/>
</g>
<text x="90" y="520" font-family="Georgia, serif" font-size="54" font-weight="800" fill="white">Moreh</text>
<text x="92" y="565" font-family="Inter, Arial, sans-serif" font-size="27" font-weight="700" fill="rgba(255,255,255,.92)">border trip · What's On Imphal &amp; Manipur</text>
</svg>