<svg xmlns="http://www.w3.org/2000/svg" width="900" height="620" viewBox="0 0 900 620" role="img" aria-label="Family day out">
<defs>
<linearGradient id="g" x1="0" x2="1" y1="0" y2="1"><stop offset="0" stop-color="#17324d"/><stop offset=".62" stop-color="#8cc8ff"/><stop offset="1" stop-color="#c89b2c"/></linearGradient>
<filter id="shadow"><feDropShadow dx="0" dy="18" stdDeviation="18" flood-color="#001b33" flood-opacity=".25"/></filter>
</defs>
<rect width="900" height="620" fill="url(#g)"/><circle cx="611" cy="208" r="2" fill="rgba(255,255,255,.45)" /><circle cx="231" cy="185" r="3" fill="rgba(255,255,255,.45)" /><circle cx="432" cy="40" r="3" fill="rgba(255,255,255,.45)" /><circle cx="90" cy="55" r="2" fill="rgba(255,255,255,.45)" /><circle cx="646" cy="127" r="2" fill="rgba(255,255,255,.45)" /><circle cx="134" cy="15" r="1" fill="rgba(255,255,255,.45)" /><circle cx="94" cy="89" r="3" fill="rgba(255,255,255,.45)" /><circle cx="227" cy="197" r="3" fill="rgba(255,255,255,.45)" /><circle cx="32" cy="40" r="3" fill="rgba(255,255,255,.45)" /><circle cx="77" cy="191" r="3" fill="rgba(255,255,255,.45)" /><circle cx="327" cy="72" r="3" fill="rgba(255,255,255,.45)" /><circle cx="585" cy="47" r="2" fill="rgba(255,255,255,.45)" /><circle cx="22" cy="86" r="3" fill="rgba(255,255,255,.45)" /><circle cx="49" cy="230" r="2" fill="rgba(255,255,255,.45)" /><circle cx="513" cy="134" r="2" fill="rgba(255,255,255,.45)" /><circle cx="55" cy="165" r="3" fill="rgba(255,255,255,.45)" /><circle cx="373" cy="209" r="1" fill="rgba(255,255,255,.45)" /><circle cx="470" cy="215" r="2" fill="rgba(255,255,255,.45)" />
<path d="M0 410 C145 315 250 455 400 365 C575 260 675 385 900 280 L900 620 L0 620 Z" fill="rgba(255,255,255,.22)"/>
<path d="M0 470 C175 395 320 510 510 420 C670 340 760 430 900 365 L900 620 L0 620 Z" fill="rgba(255,255,255,.35)"/>
<g filter="url(#shadow)"><rect x="70" y="80" width="760" height="385" rx="34" fill="rgba(255,255,255,.18)" stroke="rgba(255,255,255,.48)"/>
<rect x="112" y="275" width="330" height="130" rx="22" fill="rgba(255,255,255,.86)"/>
<rect x="490" y="145" width="230" height="210" rx="28" fill="rgba(0,35,67,.56)"/>
<text x="605" y="275" text-anchor="middle" font-size="88" font-family="Arial, sans-serif">👨‍👩‍👧</text>
<path d="M125 330 L235 230 L320 315 L380 260 L425 330" fill="none" stroke="#17324d" stroke-width="13" stroke-linecap="round" stroke-linejoin="round" opacity=".82"/>
</g>
<text x="90" y="520" font-family="Georgia, serif" font-size="54" font-weight="800" fill="white">Family</text>
<text x="92" y="565" font-family="Inter, Arial, sans-serif" font-size="27" font-weight="700" fill="rgba(255,255,255,.92)">day out · What's On Imphal &amp; Manipur</text>
</svg>