<svg xmlns="http://www.w3.org/2000/svg" width="900" height="620" viewBox="0 0 900 620" role="img" aria-label="Art exhibition">
<defs>
<linearGradient id="g" x1="0" x2="1" y1="0" y2="1"><stop offset="0" stop-color="#12384d"/><stop offset=".62" stop-color="#1f8a70"/><stop offset="1" stop-color="#f7c948"/></linearGradient>
<filter id="shadow"><feDropShadow dx="0" dy="18" stdDeviation="18" flood-color="#001b33" flood-opacity=".25"/></filter>
</defs>
<rect width="900" height="620" fill="url(#g)"/><circle cx="627" cy="87" r="3" fill="rgba(255,255,255,.45)" /><circle cx="238" cy="59" r="3" fill="rgba(255,255,255,.45)" /><circle cx="282" cy="184" r="1" fill="rgba(255,255,255,.45)" /><circle cx="584" cy="27" r="3" fill="rgba(255,255,255,.45)" /><circle cx="337" cy="110" r="2" fill="rgba(255,255,255,.45)" /><circle cx="650" cy="134" r="3" fill="rgba(255,255,255,.45)" /><circle cx="443" cy="109" r="2" fill="rgba(255,255,255,.45)" /><circle cx="376" cy="79" r="3" fill="rgba(255,255,255,.45)" /><circle cx="430" cy="211" r="3" fill="rgba(255,255,255,.45)" /><circle cx="104" cy="188" r="2" fill="rgba(255,255,255,.45)" /><circle cx="558" cy="178" r="2" fill="rgba(255,255,255,.45)" /><circle cx="75" cy="146" r="3" fill="rgba(255,255,255,.45)" /><circle cx="499" cy="66" r="3" fill="rgba(255,255,255,.45)" /><circle cx="60" cy="79" r="1" fill="rgba(255,255,255,.45)" /><circle cx="373" cy="224" r="3" fill="rgba(255,255,255,.45)" /><circle cx="481" cy="191" r="2" fill="rgba(255,255,255,.45)" /><circle cx="433" cy="76" r="2" fill="rgba(255,255,255,.45)" /><circle cx="354" cy="111" r="3" fill="rgba(255,255,255,.45)" />
<path d="M0 410 C145 315 250 455 400 365 C575 260 675 385 900 280 L900 620 L0 620 Z" fill="rgba(255,255,255,.22)"/>
<path d="M0 470 C175 395 320 510 510 420 C670 340 760 430 900 365 L900 620 L0 620 Z" fill="rgba(255,255,255,.35)"/>
<g filter="url(#shadow)"><rect x="70" y="80" width="760" height="385" rx="34" fill="rgba(255,255,255,.18)" stroke="rgba(255,255,255,.48)"/>
<rect x="112" y="275" width="330" height="130" rx="22" fill="rgba(255,255,255,.86)"/>
<rect x="490" y="145" width="230" height="210" rx="28" fill="rgba(0,35,67,.56)"/>
<text x="605" y="275" text-anchor="middle" font-size="88" font-family="Arial, sans-serif">🎨</text>
<path d="M125 330 L235 230 L320 315 L380 260 L425 330" fill="none" stroke="#12384d" stroke-width="13" stroke-linecap="round" stroke-linejoin="round" opacity=".82"/>
</g>
<text x="90" y="520" font-family="Georgia, serif" font-size="54" font-weight="800" fill="white">Art</text>
<text x="92" y="565" font-family="Inter, Arial, sans-serif" font-size="27" font-weight="700" fill="rgba(255,255,255,.92)">exhibition · What's On Imphal &amp; Manipur</text>
</svg>