<svg xmlns="http://www.w3.org/2000/svg" width="900" height="620" viewBox="0 0 900 620" role="img" aria-label="Taxi getting around">
<defs>
<linearGradient id="g" x1="0" x2="1" y1="0" y2="1"><stop offset="0" stop-color="#0b132b"/><stop offset=".62" stop-color="#3b82f6"/><stop offset="1" stop-color="#f59e0b"/></linearGradient>
<filter id="shadow"><feDropShadow dx="0" dy="18" stdDeviation="18" flood-color="#001b33" flood-opacity=".25"/></filter>
</defs>
<rect width="900" height="620" fill="url(#g)"/><circle cx="611" cy="57" r="1" fill="rgba(255,255,255,.45)" /><circle cx="641" cy="200" r="3" fill="rgba(255,255,255,.45)" /><circle cx="292" cy="221" r="3" fill="rgba(255,255,255,.45)" /><circle cx="174" cy="26" r="3" fill="rgba(255,255,255,.45)" /><circle cx="434" cy="202" r="2" fill="rgba(255,255,255,.45)" /><circle cx="613" cy="206" r="3" fill="rgba(255,255,255,.45)" /><circle cx="447" cy="120" r="1" fill="rgba(255,255,255,.45)" /><circle cx="460" cy="183" r="2" fill="rgba(255,255,255,.45)" /><circle cx="511" cy="220" r="2" fill="rgba(255,255,255,.45)" /><circle cx="541" cy="48" r="1" fill="rgba(255,255,255,.45)" /><circle cx="175" cy="80" r="1" fill="rgba(255,255,255,.45)" /><circle cx="343" cy="58" r="2" fill="rgba(255,255,255,.45)" /><circle cx="613" cy="152" r="2" fill="rgba(255,255,255,.45)" /><circle cx="129" cy="77" r="3" fill="rgba(255,255,255,.45)" /><circle cx="548" cy="186" r="3" fill="rgba(255,255,255,.45)" /><circle cx="459" cy="29" r="3" fill="rgba(255,255,255,.45)" /><circle cx="584" cy="90" r="2" fill="rgba(255,255,255,.45)" /><circle cx="343" cy="46" r="3" fill="rgba(255,255,255,.45)" />
<path d="M0 410 C145 315 250 455 400 365 C575 260 675 385 900 280 L900 620 L0 620 Z" fill="rgba(255,255,255,.22)"/>
<path d="M0 470 C175 395 320 510 510 420 C670 340 760 430 900 365 L900 620 L0 620 Z" fill="rgba(255,255,255,.35)"/>
<g filter="url(#shadow)"><rect x="70" y="80" width="760" height="385" rx="34" fill="rgba(255,255,255,.18)" stroke="rgba(255,255,255,.48)"/>
<rect x="112" y="275" width="330" height="130" rx="22" fill="rgba(255,255,255,.86)"/>
<rect x="490" y="145" width="230" height="210" rx="28" fill="rgba(0,35,67,.56)"/>
<text x="605" y="275" text-anchor="middle" font-size="88" font-family="Arial, sans-serif">🚕</text>
<path d="M125 330 L235 230 L320 315 L380 260 L425 330" fill="none" stroke="#0b132b" stroke-width="13" stroke-linecap="round" stroke-linejoin="round" opacity=".82"/>
</g>
<text x="90" y="520" font-family="Georgia, serif" font-size="54" font-weight="800" fill="white">Taxi</text>
<text x="92" y="565" font-family="Inter, Arial, sans-serif" font-size="27" font-weight="700" fill="rgba(255,255,255,.92)">getting around · What's On Imphal &amp; Manipur</text>
</svg>