<svg xmlns="http://www.w3.org/2000/svg" width="900" height="620" viewBox="0 0 900 620" role="img" aria-label="Shopping handloom">
<defs>
<linearGradient id="g" x1="0" x2="1" y1="0" y2="1"><stop offset="0" stop-color="#0f3d57"/><stop offset=".62" stop-color="#f97316"/><stop offset="1" stop-color="#f8fafc"/></linearGradient>
<filter id="shadow"><feDropShadow dx="0" dy="18" stdDeviation="18" flood-color="#001b33" flood-opacity=".25"/></filter>
</defs>
<rect width="900" height="620" fill="url(#g)"/><circle cx="165" cy="93" r="2" fill="rgba(255,255,255,.45)" /><circle cx="538" cy="58" r="2" fill="rgba(255,255,255,.45)" /><circle cx="653" cy="30" r="2" fill="rgba(255,255,255,.45)" /><circle cx="36" cy="182" r="1" fill="rgba(255,255,255,.45)" /><circle cx="287" cy="40" r="3" fill="rgba(255,255,255,.45)" /><circle cx="394" cy="146" r="2" fill="rgba(255,255,255,.45)" /><circle cx="364" cy="36" r="1" fill="rgba(255,255,255,.45)" /><circle cx="671" cy="83" r="2" fill="rgba(255,255,255,.45)" /><circle cx="225" cy="72" r="1" fill="rgba(255,255,255,.45)" /><circle cx="359" cy="30" r="3" fill="rgba(255,255,255,.45)" /><circle cx="615" cy="153" r="2" fill="rgba(255,255,255,.45)" /><circle cx="281" cy="25" r="3" fill="rgba(255,255,255,.45)" /><circle cx="488" cy="136" r="2" fill="rgba(255,255,255,.45)" /><circle cx="567" cy="165" r="2" fill="rgba(255,255,255,.45)" /><circle cx="586" cy="226" r="2" fill="rgba(255,255,255,.45)" /><circle cx="372" cy="103" r="1" fill="rgba(255,255,255,.45)" /><circle cx="643" cy="138" r="2" fill="rgba(255,255,255,.45)" /><circle cx="341" cy="220" r="3" fill="rgba(255,255,255,.45)" />
<path d="M0 410 C145 315 250 455 400 365 C575 260 675 385 900 280 L900 620 L0 620 Z" fill="rgba(255,255,255,.22)"/>
<path d="M0 470 C175 395 320 510 510 420 C670 340 760 430 900 365 L900 620 L0 620 Z" fill="rgba(255,255,255,.35)"/>
<g filter="url(#shadow)"><rect x="70" y="80" width="760" height="385" rx="34" fill="rgba(255,255,255,.18)" stroke="rgba(255,255,255,.48)"/>
<rect x="112" y="275" width="330" height="130" rx="22" fill="rgba(255,255,255,.86)"/>
<rect x="490" y="145" width="230" height="210" rx="28" fill="rgba(0,35,67,.56)"/>
<text x="605" y="275" text-anchor="middle" font-size="88" font-family="Arial, sans-serif">🧵</text>
<path d="M125 330 L235 230 L320 315 L380 260 L425 330" fill="none" stroke="#0f3d57" stroke-width="13" stroke-linecap="round" stroke-linejoin="round" opacity=".82"/>
</g>
<text x="90" y="520" font-family="Georgia, serif" font-size="54" font-weight="800" fill="white">Shopping</text>
<text x="92" y="565" font-family="Inter, Arial, sans-serif" font-size="27" font-weight="700" fill="rgba(255,255,255,.92)">handloom · What's On Imphal &amp; Manipur</text>
</svg>