<svg xmlns="http://www.w3.org/2000/svg" width="900" height="620" viewBox="0 0 900 620" role="img" aria-label="Loktak lake sunset">
<defs>
<linearGradient id="g" x1="0" x2="1" y1="0" y2="1"><stop offset="0" stop-color="#12384d"/><stop offset=".62" stop-color="#1f8a70"/><stop offset="1" stop-color="#f7c948"/></linearGradient>
<filter id="shadow"><feDropShadow dx="0" dy="18" stdDeviation="18" flood-color="#001b33" flood-opacity=".25"/></filter>
</defs>
<rect width="900" height="620" fill="url(#g)"/><circle cx="101" cy="81" r="2" fill="rgba(255,255,255,.45)" /><circle cx="20" cy="39" r="2" fill="rgba(255,255,255,.45)" /><circle cx="507" cy="39" r="3" fill="rgba(255,255,255,.45)" /><circle cx="135" cy="30" r="3" fill="rgba(255,255,255,.45)" /><circle cx="459" cy="139" r="3" fill="rgba(255,255,255,.45)" /><circle cx="359" cy="209" r="3" fill="rgba(255,255,255,.45)" /><circle cx="638" cy="188" r="1" fill="rgba(255,255,255,.45)" /><circle cx="597" cy="118" r="2" fill="rgba(255,255,255,.45)" /><circle cx="309" cy="172" r="2" fill="rgba(255,255,255,.45)" /><circle cx="478" cy="42" r="2" fill="rgba(255,255,255,.45)" /><circle cx="604" cy="61" r="1" fill="rgba(255,255,255,.45)" /><circle cx="306" cy="220" r="1" fill="rgba(255,255,255,.45)" /><circle cx="123" cy="49" r="1" fill="rgba(255,255,255,.45)" /><circle cx="49" cy="16" r="1" fill="rgba(255,255,255,.45)" /><circle cx="385" cy="173" r="1" fill="rgba(255,255,255,.45)" /><circle cx="132" cy="154" r="2" fill="rgba(255,255,255,.45)" /><circle cx="172" cy="53" r="3" fill="rgba(255,255,255,.45)" /><circle cx="185" cy="124" r="2" fill="rgba(255,255,255,.45)" />
<path d="M0 410 C145 315 250 455 400 365 C575 260 675 385 900 280 L900 620 L0 620 Z" fill="rgba(255,255,255,.22)"/>
<path d="M0 470 C175 395 320 510 510 420 C670 340 760 430 900 365 L900 620 L0 620 Z" fill="rgba(255,255,255,.35)"/>
<g filter="url(#shadow)"><rect x="70" y="80" width="760" height="385" rx="34" fill="rgba(255,255,255,.18)" stroke="rgba(255,255,255,.48)"/>
<rect x="112" y="275" width="330" height="130" rx="22" fill="rgba(255,255,255,.86)"/>
<rect x="490" y="145" width="230" height="210" rx="28" fill="rgba(0,35,67,.56)"/>
<text x="605" y="275" text-anchor="middle" font-size="88" font-family="Arial, sans-serif">🚣</text>
<path d="M125 330 L235 230 L320 315 L380 260 L425 330" fill="none" stroke="#12384d" stroke-width="13" stroke-linecap="round" stroke-linejoin="round" opacity=".82"/>
</g>
<text x="90" y="520" font-family="Georgia, serif" font-size="54" font-weight="800" fill="white">Loktak</text>
<text x="92" y="565" font-family="Inter, Arial, sans-serif" font-size="27" font-weight="700" fill="rgba(255,255,255,.92)">lake sunset · What's On Imphal &amp; Manipur</text>
</svg>